# xmcd
#
# Track frame offsets: 
#        150
#        12393
#        24119
#        41514
#        52803
#
# Disc length: 865 seconds
#
# Revision: 0
# Processed by: cddbd v1.5.2PL0 Copyright (c) Steve Scherf et al.
# Submitted via: ExactAudioCopy v0.99pb5
#
DISCID=2c035f05
DTITLE=Honeyhoney - Loose Boots
DYEAR=2008
DGENRE=Country
TTITLE0=Little Toy Gun
TTITLE1=Give Yourself To Me
TTITLE2=Bouncing Ball
TTITLE3=Thursday Night
TTITLE4=David
EXTD=
EXTT0=
EXTT1=
EXTT2=
EXTT3=
EXTT4=
PLAYORDER=
